<svg fill="#FFFFFF" xmlns="http://www.w3.org/2000/svg"  viewBox="0 0 64 64" width="64px" height="64px"><path d="M 3 2 C 1.347656 2 0 3.347656 0 5 C 0 6.652344 1.347656 8 3 8 C 4.101563 8 5.054688 7.398438 5.578125 6.507813 C 7.148438 7.253906 8.296875 8.78125 8.441406 10.605469 L 11.234375 45.867188 C 11.625 50.828125 15.347656 54.847656 20.078125 55.785156 C 20.460938 58.167969 22.511719 60 25 60 C 27.414063 60 29.433594 58.277344 29.898438 56 L 40.101563 56 C 40.566406 58.277344 42.585938 60 45 60 C 47.757813 60 50 57.757813 50 55 C 50 52.242188 47.757813 50 45 50 C 42.585938 50 40.566406 51.722656 40.101563 54 L 29.898438 54 C 29.433594 51.722656 27.414063 50 25 50 C 22.675781 50 20.734375 51.601563 20.175781 53.753906 C 17.195313 53.058594 14.742188 50.871094 13.71875 48 L 52.382813 48 C 53.789063 48 55.023438 47.003906 55.316406 45.628906 L 60.808594 20 L 61 20 C 62.652344 20 64 18.652344 64 17 C 64 15.347656 62.652344 14 61 14 L 10.71875 14 L 10.4375 10.449219 C 10.21875 7.703125 8.398438 5.414063 5.945313 4.46875 C 5.695313 3.066406 4.472656 2 3 2 Z M 3 3.8125 C 3.65625 3.8125 4.1875 4.34375 4.1875 5 C 4.1875 5.65625 3.65625 6.1875 3 6.1875 C 2.34375 6.1875 1.8125 5.65625 1.8125 5 C 1.8125 4.34375 2.34375 3.8125 3 3.8125 Z M 10.875 16 L 61 16 C 61.550781 16 62 16.449219 62 17 C 62 17.550781 61.550781 18 61 18 L 11.03125 18 Z M 11.191406 20 L 58.765625 20 L 53.359375 45.210938 C 53.261719 45.667969 52.851563 46 52.382813 46 L 13.261719 46 C 13.25 45.902344 13.234375 45.808594 13.226563 45.710938 Z M 14 22 C 13.445313 22 13 22.445313 13 23 L 13 25 C 13 25.554688 13.445313 26 14 26 C 14.554688 26 15 25.554688 15 25 L 15 23 C 15 22.445313 14.554688 22 14 22 Z M 19 22 C 18.445313 22 18 22.445313 18 23 L 18 25 C 18 25.554688 18.445313 26 19 26 C 19.554688 26 20 25.554688 20 25 L 20 23 C 20 22.445313 19.554688 22 19 22 Z M 24 22 C 23.445313 22 23 22.445313 23 23 L 23 25 C 23 25.554688 23.445313 26 24 26 C 24.554688 26 25 25.554688 25 25 L 25 23 C 25 22.445313 24.554688 22 24 22 Z M 29 22 C 28.445313 22 28 22.445313 28 23 L 28 25 C 28 25.554688 28.445313 26 29 26 C 29.554688 26 30 25.554688 30 25 L 30 23 C 30 22.445313 29.554688 22 29 22 Z M 34 22 C 33.445313 22 33 22.445313 33 23 L 33 25 C 33 25.554688 33.445313 26 34 26 C 34.554688 26 35 25.554688 35 25 L 35 23 C 35 22.445313 34.554688 22 34 22 Z M 39 22 C 38.445313 22 38 22.445313 38 23 L 38 25 C 38 25.554688 38.445313 26 39 26 C 39.554688 26 40 25.554688 40 25 L 40 23 C 40 22.445313 39.554688 22 39 22 Z M 44 22 C 43.445313 22 43 22.445313 43 23 L 43 25 C 43 25.554688 43.445313 26 44 26 C 44.554688 26 45 25.554688 45 25 L 45 23 C 45 22.445313 44.554688 22 44 22 Z M 49 22 C 48.445313 22 48 22.445313 48 23 L 48 25 C 48 25.554688 48.445313 26 49 26 C 49.554688 26 50 25.554688 50 25 L 50 23 C 50 22.445313 49.554688 22 49 22 Z M 54 22 C 53.445313 22 53 22.445313 53 23 L 53 25 C 53 25.554688 53.445313 26 54 26 C 54.554688 26 55 25.554688 55 25 L 55 23 C 55 22.445313 54.554688 22 54 22 Z M 15 42 C 14.445313 42 14 42.445313 14 43 C 14 43.554688 14.445313 44 15 44 L 43 44 C 43.554688 44 44 43.554688 44 43 C 44 42.445313 43.554688 42 43 42 Z M 47 42 C 46.445313 42 46 42.445313 46 43 C 46 43.554688 46.445313 44 47 44 L 51 44 C 51.554688 44 52 43.554688 52 43 C 52 42.445313 51.554688 42 51 42 Z M 45 51.511719 C 46.925781 51.511719 48.488281 53.074219 48.488281 55 C 48.488281 56.925781 46.925781 58.488281 45 58.488281 C 43.074219 58.488281 41.511719 56.925781 41.511719 55 C 41.511719 53.074219 43.074219 51.511719 45 51.511719 Z M 25 51.707031 C 26.816406 51.707031 28.292969 53.183594 28.292969 55 C 28.292969 56.816406 26.816406 58.292969 25 58.292969 C 23.183594 58.292969 21.707031 56.816406 21.707031 55 C 21.707031 53.183594 23.183594 51.707031 25 51.707031 Z"/></svg>